<?xml version="1.0" standalone="no"?>
<!DOCTYPE svg PUBLIC "-//W3C//DTD SVG 20010904//EN"
 "http://www.w3.org/TR/2001/REC-SVG-20010904/DTD/svg10.dtd">
<svg version="1.0" xmlns="http://www.w3.org/2000/svg"
 width="512.000000pt" height="512.000000pt" viewBox="0 0 512.000000 512.000000"
 preserveAspectRatio="xMidYMid meet">
<metadata>
Created by potrace 1.14, written by Peter Selinger 2001-2017
</metadata>
<g transform="translate(0.000000,512.000000) scale(0.100000,-0.100000)"
fill="#000000" stroke="none">
<path d="M530 3266 l0 -1854 -222 0 c-123 0 -243 -1 -267 -1 l-43 -1 4 -232
c4 -214 6 -238 28 -293 61 -159 182 -278 329 -324 72 -23 101 -29 144 -30 l27
-1 0 -265 0 -265 2295 0 2295 0 0 2560 0 2560 -2295 0 -2295 0 0 -1854z"/>
</g>
</svg>
